<svg version="1.0" xmlns="http://www.w3.org/2000/svg" width="1706.667" height="986.667" viewBox="0 0 1280 740"><path d="M40 11.2c-13.6 1.1-34 4.4-35.2 5.6-.6.6-1 9.3-1.1 19.8-.1 22.7 1.8 33.8 8.2 47 7 14.6 13.2 22.6 27 34.5 14 12.1 21.8 24.8 26.3 42.6 1.9 7.5 2.3 11.4 2.2 26.8 0 25.7-2.8 39.4-17.4 85.5-10.1 31.7-10.8 35.9-9.2 56.7 4.6 62.7 27.7 119.3 70.9 173.4 12.1 15.1 41.7 45.3 56.8 57.8 66.4 55.2 147 94.6 245 119.9l15 3.9-10 .7c-50.1 3.5-83.5 9.8-83.5 15.8 0 6.2 32.4 12.5 81.5 15.8 8.8.6 18.5 1.2 21.5 1.5 3 .2 25 .9 48.7 1.6 33.4.9 53.2.9 87 0 24.1-.6 45.2-1.4 46.8-1.6 1.7-.2 8.2-.6 14.5-1 36.5-1.9 70.2-6.6 83.3-11.5 6.7-2.5 7.6-3.9 5-7.4-1.6-2.3-2.4-2.5-7.3-2.1-6.6.5-5.5.2 17.5-3.6 122-20.4 233.9-64.7 335-132.3 53.5-35.9 109.5-84.1 139.8-120.2 8.2-9.8 35.9-48.7 44.7-62.6 21.5-34.3 30-61.5 26-82.7-1.5-7.9-6.6-19.9-10.5-24.4-1.9-2.2-3.5-4.6-3.5-5.3 0-1.7-14.6-11.7-21.7-14.8-17.9-7.9-55.9-8.8-84.9-2.1-33.2 7.7-58 17.1-152 57.3-124.1 53.3-185.8 74.7-255.4 88.6-99.9 19.9-201.3 13.8-296.5-17.9-98.8-33-192.6-95.1-271.2-179.6-23.5-25.3-27.8-30.4-32.3-37.9-11-18.3-13.2-28.9-18.5-90.3-.9-9.7-2.3-21.5-3.1-26.2-1.5-8.1-1.8-8.6-5.8-11.6-12.3-9.1-36.3-17.5-56.9-19.8-10.6-1.2-11.6-1.2-26.7.1z"/></svg>