<?xml version="1.0" standalone="no"?>
<!DOCTYPE svg PUBLIC "-//W3C//DTD SVG 20010904//EN"
 "http://www.w3.org/TR/2001/REC-SVG-20010904/DTD/svg10.dtd">
<svg version="1.0" xmlns="http://www.w3.org/2000/svg"
 preserveAspectRatio="xMidYMid meet">
<metadata>
Created by potrace 1.15, written by Peter Selinger 2001-2017
</metadata>
<g>
<path d="M1307 12790 c-351 -32 -563 -127 -643 -288 -22 -46 -29 -75 -32 -146
-5 -106 6 -166 59 -302 86 -222 246 -466 729 -1109 506 -674 493 -656 927
-1350 464 -742 517 -840 651 -1210 198 -546 267 -1024 217 -1501 -20 -189 -64
-420 -106 -551 l-10 -32 -302 285 c-166 157 -609 574 -984 927 l-682 642 -20
65 c-21 66 -431 1565 -431 1574 0 3 -31 -13 -69 -35 l-68 -39 173 -632 c95
-348 171 -634 170 -635 -3 -3 -240 220 -587 548 l-147 139 -60 -150 -61 -151
34 -32 c444 -417 763 -722 757 -724 -4 -1 -180 -21 -392 -43 -212 -22 -396
-43 -409 -46 -23 -5 -23 -6 -16 -97 4 -51 9 -94 11 -96 3 -3 101 7 812 85 178
19 327 34 331 32 5 -2 432 -403 949 -891 l941 -889 -30 -81 c-188 -513 -525
-1079 -1013 -1702 -108 -138 -350 -430 -751 -905 -368 -436 -545 -691 -602
-867 -34 -107 -30 -227 10 -295 30 -52 81 -99 137 -128 l40 -20 0 -975 0 -975
-325 0 -325 0 0 -95 0 -95 935 0 935 0 0 95 0 95 -505 0 -505 0 0 940 c0 889
1 940 18 940 9 0 44 -5 77 -10 193 -32 635 -31 945 1 181 18 518 76 613 105
16 5 17 -46 17 -966 l0 -971 -320 3 -320 3 0 -97 0 -98 935 0 935 0 0 95 0 95
-505 2 -505 3 0 995 0 995 192 66 c415 142 759 311 1130 555 1129 741 1952
1951 2258 3318 l23 100 16 -31 16 -31 815 770 c448 423 875 826 947 895 l133
125 571 -62 c314 -34 572 -60 574 -58 1 1 6 44 10 95 7 91 7 92 -16 97 -13 3
-201 24 -417 47 l-393 43 28 26 c15 15 156 148 313 295 157 148 324 306 372
352 l86 84 -60 150 -61 151 -56 -55 c-129 -126 -674 -637 -677 -634 -1 1 75
287 170 635 l173 632 -68 39 c-38 22 -69 38 -69 35 0 -2 -99 -368 -220 -812
l-221 -807 -62 -62 c-89 -89 -1872 -1771 -1874 -1769 -2 1 4 40 12 87 57 328
84 801 67 1162 -27 544 -107 994 -262 1482 -213 670 -538 1266 -994 1825 -134
165 -498 531 -661 666 -787 653 -1672 1033 -2660 1139 -175 19 -626 28 -768
15z"/>
</g>
</svg>
