<?xml version="1.0" standalone="no"?><svg xmlns="http://www.w3.org/2000/svg" xmlns:xlink="http://www.w3.org/1999/xlink"><symbol viewBox="0 0 9634 12803" id="example" xmlns="http://www.w3.org/2000/svg"><path d="M1307 12790c-351-32-563-127-643-288-22-46-29-75-32-146-5-106 6-166 59-302 86-222 246-466 729-1109 506-674 493-656 927-1350 464-742 517-840 651-1210 198-546 267-1024 217-1501-20-189-64-420-106-551l-10-32-302 285c-166 157-609 574-984 927l-682 642-20 65c-21 66-431 1565-431 1574 0 3-31-13-69-35l-68-39 173-632c95-348 171-634 170-635-3-3-240 220-587 548l-147 139-60-150-61-151 34-32c444-417 763-722 757-724-4-1-180-21-392-43s-396-43-409-46c-23-5-23-6-16-97 4-51 9-94 11-96 3-3 101 7 812 85 178 19 327 34 331 32 5-2 432-403 949-891l941-889-30-81c-188-513-525-1079-1013-1702-108-138-350-430-751-905-368-436-545-691-602-867-34-107-30-227 10-295 30-52 81-99 137-128l40-20V190H190V0h1870v190H1050v940c0 889 1 940 18 940 9 0 44-5 77-10 193-32 635-31 945 1 181 18 518 76 613 105 16 5 17-46 17-966V229l-320 3-320 3V40h1870v190l-505 2-505 3v1990l192 66c415 142 759 311 1130 555 1129 741 1952 1951 2258 3318l23 100 16-31 16-31 815 770c448 423 875 826 947 895l133 125 571-62c314-34 572-60 574-58 1 1 6 44 10 95 7 91 7 92-16 97-13 3-201 24-417 47l-393 43 28 26c15 15 156 148 313 295 157 148 324 306 372 352l86 84-60 150-61 151-56-55c-129-126-674-637-677-634-1 1 75 287 170 635l173 632-68 39c-38 22-69 38-69 35 0-2-99-368-220-812l-221-807-62-62c-89-89-1872-1771-1874-1769-2 1 4 40 12 87 57 328 84 801 67 1162-27 544-107 994-262 1482-213 670-538 1266-994 1825-134 165-498 531-661 666-787 653-1672 1033-2660 1139-175 19-626 28-768 15z"/></symbol></svg>